<svg width="512" height="512" viewBox="0 0 512 512" fill="none" xmlns="http://www.w3.org/2000/svg">
<g filter="url(#filter0_i_1_13)">
<circle cx="256" cy="256" r="256" fill="#DBB222"/>
</g>
<g filter="url(#filter1_d_1_13)">
<path d="M422.588 154.518C420.665 152.536 417.499 152.489 415.518 154.412L383.226 185.753C381.245 187.677 381.198 190.842 383.121 192.824C385.044 194.805 388.21 194.853 390.191 192.929L418.894 165.07L446.753 193.774C448.677 195.755 451.842 195.802 453.824 193.879C455.805 191.956 455.853 188.79 453.929 186.809L422.588 154.518ZM422.999 225.075L423.999 158.075L414.001 157.925L413.001 224.925L422.999 225.075Z" fill="white"/>
</g>
<g filter="url(#filter2_d_1_13)">
<path d="M236.499 297.606C235.729 294.954 232.955 293.428 230.303 294.198L187.088 306.748C184.436 307.518 182.911 310.292 183.681 312.944C184.451 315.596 187.225 317.121 189.877 316.351L228.29 305.196L239.445 343.609C240.215 346.261 242.989 347.786 245.641 347.016C248.293 346.246 249.818 343.472 249.048 340.82L236.499 297.606ZM217.381 335.409L236.078 301.409L227.316 296.591L208.619 330.591L217.381 335.409Z" fill="white"/>
</g>
<g filter="url(#filter3_d_1_13)">
<path d="M237.156 229.5H212.938C211.505 222.534 208.999 216.414 205.418 211.141C201.902 205.867 197.605 201.44 192.527 197.859C187.514 194.214 181.948 191.479 175.828 189.656C169.708 187.833 163.328 186.922 156.688 186.922C144.578 186.922 133.608 189.982 123.777 196.102C114.012 202.221 106.232 211.238 100.438 223.152C94.7083 235.066 91.8438 249.682 91.8438 267C91.8438 284.318 94.7083 298.934 100.438 310.848C106.232 322.762 114.012 331.779 123.777 337.898C133.608 344.018 144.578 347.078 156.688 347.078C163.328 347.078 169.708 346.167 175.828 344.344C181.948 342.521 187.514 339.819 192.527 336.238C197.605 332.592 201.902 328.133 205.418 322.859C208.999 317.521 211.505 311.401 212.938 304.5H237.156C235.333 314.721 232.013 323.868 227.195 331.941C222.378 340.014 216.388 346.883 209.227 352.547C202.065 358.146 194.025 362.41 185.105 365.34C176.251 368.27 166.779 369.734 156.688 369.734C139.63 369.734 124.461 365.568 111.18 357.234C97.8984 348.901 87.4492 337.052 79.832 321.687C72.2148 306.323 68.4063 288.094 68.4063 267C68.4063 245.906 72.2148 227.677 79.832 212.312C87.4492 196.948 97.8984 185.099 111.18 176.766C124.461 168.432 139.63 164.266 156.688 164.266C166.779 164.266 176.251 165.73 185.105 168.66C194.025 171.59 202.065 175.887 209.227 181.551C216.388 187.15 222.378 193.986 227.195 202.059C232.013 210.066 235.333 219.214 237.156 229.5ZM407.542 167H431.761V299.422C431.761 313.094 428.538 325.301 422.093 336.043C415.713 346.72 406.696 355.151 395.042 361.336C383.388 367.456 369.716 370.516 354.026 370.516C338.336 370.516 324.664 367.456 313.011 361.336C301.357 355.151 292.308 346.72 285.862 336.043C279.482 325.301 276.292 313.094 276.292 299.422V167H300.511V297.469C300.511 307.234 302.659 315.926 306.956 323.543C311.253 331.095 317.373 337.052 325.315 341.414C333.323 345.711 342.894 347.859 354.026 347.859C365.159 347.859 374.729 345.711 382.737 341.414C390.745 337.052 396.865 331.095 401.097 323.543C405.394 315.926 407.542 307.234 407.542 297.469V167Z" fill="white"/>
</g>
<defs>
<filter id="filter0_i_1_13" x="-48" y="0" width="560" height="516" filterUnits="userSpaceOnUse" color-interpolation-filters="sRGB">
<feFlood flood-opacity="0" result="BackgroundImageFix"/>
<feBlend mode="normal" in="SourceGraphic" in2="BackgroundImageFix" result="shape"/>
<feColorMatrix in="SourceAlpha" type="matrix" values="0 0 0 0 0 0 0 0 0 0 0 0 0 0 0 0 0 0 127 0" result="hardAlpha"/>
<feMorphology radius="10" operator="erode" in="SourceAlpha" result="effect1_innerShadow_1_13"/>
<feOffset dx="-48" dy="4"/>
<feGaussianBlur stdDeviation="25"/>
<feComposite in2="hardAlpha" operator="arithmetic" k2="-1" k3="1"/>
<feColorMatrix type="matrix" values="0 0 0 0 0.843813 0 0 0 0 0.132326 0 0 0 0 0.858333 0 0 0 0.19 0"/>
<feBlend mode="normal" in2="shape" result="effect1_innerShadow_1_13"/>
</filter>
<filter id="filter1_d_1_13" x="377.709" y="153" width="81.6325" height="80.0746" filterUnits="userSpaceOnUse" color-interpolation-filters="sRGB">
<feFlood flood-opacity="0" result="BackgroundImageFix"/>
<feColorMatrix in="SourceAlpha" type="matrix" values="0 0 0 0 0 0 0 0 0 0 0 0 0 0 0 0 0 0 127 0" result="hardAlpha"/>
<feOffset dy="4"/>
<feGaussianBlur stdDeviation="2"/>
<feComposite in2="hardAlpha" operator="out"/>
<feColorMatrix type="matrix" values="0 0 0 0 0 0 0 0 0 0 0 0 0 0 0 0 0 0 0.25 0"/>
<feBlend mode="normal" in2="BackgroundImageFix" result="effect1_dropShadow_1_13"/>
<feBlend mode="normal" in="SourceGraphic" in2="effect1_dropShadow_1_13" result="shape"/>
</filter>
<filter id="filter2_d_1_13" x="179.481" y="293.999" width="73.7667" height="61.2173" filterUnits="userSpaceOnUse" color-interpolation-filters="sRGB">
<feFlood flood-opacity="0" result="BackgroundImageFix"/>
<feColorMatrix in="SourceAlpha" type="matrix" values="0 0 0 0 0 0 0 0 0 0 0 0 0 0 0 0 0 0 127 0" result="hardAlpha"/>
<feOffset dy="4"/>
<feGaussianBlur stdDeviation="2"/>
<feComposite in2="hardAlpha" operator="out"/>
<feColorMatrix type="matrix" values="0 0 0 0 0 0 0 0 0 0 0 0 0 0 0 0 0 0 0.25 0"/>
<feBlend mode="normal" in2="BackgroundImageFix" result="effect1_dropShadow_1_13"/>
<feBlend mode="normal" in="SourceGraphic" in2="effect1_dropShadow_1_13" result="shape"/>
</filter>
<filter id="filter3_d_1_13" x="64.4062" y="164.266" width="371.354" height="214.25" filterUnits="userSpaceOnUse" color-interpolation-filters="sRGB">
<feFlood flood-opacity="0" result="BackgroundImageFix"/>
<feColorMatrix in="SourceAlpha" type="matrix" values="0 0 0 0 0 0 0 0 0 0 0 0 0 0 0 0 0 0 127 0" result="hardAlpha"/>
<feOffset dy="4"/>
<feGaussianBlur stdDeviation="2"/>
<feComposite in2="hardAlpha" operator="out"/>
<feColorMatrix type="matrix" values="0 0 0 0 0 0 0 0 0 0 0 0 0 0 0 0 0 0 0.25 0"/>
<feBlend mode="normal" in2="BackgroundImageFix" result="effect1_dropShadow_1_13"/>
<feBlend mode="normal" in="SourceGraphic" in2="effect1_dropShadow_1_13" result="shape"/>
</filter>
</defs>
</svg>
