<svg width="512" height="512" viewBox="0 0 512 512" fill="none" xmlns="http://www.w3.org/2000/svg">
<g filter="url(#filter0_i_1_15)">
<circle cx="256" cy="256" r="256" fill="#97ECE2"/>
</g>
<g filter="url(#filter1_d_1_15)">
<path d="M182.61 214.309C184.778 217.838 189.397 218.941 192.926 216.773L250.438 181.437C253.967 179.268 255.071 174.65 252.902 171.12C250.734 167.591 246.115 166.488 242.586 168.656L191.464 200.066L160.054 148.944C157.886 145.415 153.267 144.312 149.738 146.48C146.209 148.649 145.105 153.268 147.274 156.797L182.61 214.309ZM193.5 159.258L181.705 208.64L196.295 212.125L208.089 162.742L193.5 159.258Z" fill="white"/>
</g>
<g filter="url(#filter2_d_1_15)">
<path d="M234.432 325.182V323.477C234.621 305.39 236.515 290.996 240.114 280.295C243.712 269.595 248.826 260.93 255.455 254.301C262.083 247.672 270.038 241.564 279.318 235.977C284.905 232.568 289.924 228.544 294.375 223.903C298.826 219.169 302.33 213.723 304.886 207.568C307.538 201.413 308.864 194.595 308.864 187.114C308.864 177.833 306.686 169.784 302.33 162.966C297.973 156.148 292.15 150.892 284.858 147.199C277.566 143.506 269.47 141.659 260.568 141.659C252.803 141.659 245.322 143.269 238.125 146.489C230.928 149.708 224.915 154.775 220.085 161.688C215.256 168.6 212.462 177.644 211.705 188.818H175.909C176.667 172.72 180.833 158.941 188.409 147.483C196.08 136.025 206.165 127.265 218.665 121.205C231.259 115.144 245.227 112.114 260.568 112.114C277.235 112.114 291.723 115.428 304.034 122.057C316.439 128.686 326.004 137.777 332.727 149.33C339.545 160.883 342.955 174.045 342.955 188.818C342.955 199.235 341.345 208.657 338.125 217.085C335 225.513 330.455 233.042 324.489 239.67C318.617 246.299 311.515 252.17 303.182 257.284C294.848 262.492 288.172 267.985 283.153 273.761C278.134 279.443 274.489 286.214 272.216 294.074C269.943 301.934 268.712 311.735 268.523 323.477V325.182H234.432ZM252.614 409.273C245.606 409.273 239.593 406.763 234.574 401.744C229.555 396.725 227.045 390.712 227.045 383.705C227.045 376.697 229.555 370.684 234.574 365.665C239.593 360.646 245.606 358.136 252.614 358.136C259.621 358.136 265.634 360.646 270.653 365.665C275.672 370.684 278.182 376.697 278.182 383.705C278.182 388.345 276.998 392.606 274.631 396.489C272.358 400.371 269.28 403.496 265.398 405.864C261.61 408.136 257.348 409.273 252.614 409.273Z" fill="white"/>
</g>
<rect x="177" y="177" width="31" height="21" fill="white"/>
<rect x="177" y="183" width="35" height="15" fill="white"/>
<rect x="176" y="183" width="13" height="15" fill="white"/>
<defs>
<filter id="filter0_i_1_15" x="-48" y="0" width="560" height="516" filterUnits="userSpaceOnUse" color-interpolation-filters="sRGB">
<feFlood flood-opacity="0" result="BackgroundImageFix"/>
<feBlend mode="normal" in="SourceGraphic" in2="BackgroundImageFix" result="shape"/>
<feColorMatrix in="SourceAlpha" type="matrix" values="0 0 0 0 0 0 0 0 0 0 0 0 0 0 0 0 0 0 127 0" result="hardAlpha"/>
<feMorphology radius="10" operator="erode" in="SourceAlpha" result="effect1_innerShadow_1_15"/>
<feOffset dx="-48" dy="4"/>
<feGaussianBlur stdDeviation="25"/>
<feComposite in2="hardAlpha" operator="arithmetic" k2="-1" k3="1"/>
<feColorMatrix type="matrix" values="0 0 0 0 0.843813 0 0 0 0 0.132326 0 0 0 0 0.858333 0 0 0 0.37 0"/>
<feBlend mode="normal" in2="shape" result="effect1_innerShadow_1_15"/>
</filter>
<filter id="filter1_d_1_15" x="142.163" y="145.369" width="115.85" height="80.514" filterUnits="userSpaceOnUse" color-interpolation-filters="sRGB">
<feFlood flood-opacity="0" result="BackgroundImageFix"/>
<feColorMatrix in="SourceAlpha" type="matrix" values="0 0 0 0 0 0 0 0 0 0 0 0 0 0 0 0 0 0 127 0" result="hardAlpha"/>
<feOffset dy="4"/>
<feGaussianBlur stdDeviation="2"/>
<feComposite in2="hardAlpha" operator="out"/>
<feColorMatrix type="matrix" values="0 0 0 0 0 0 0 0 0 0 0 0 0 0 0 0 0 0 0.25 0"/>
<feBlend mode="normal" in2="BackgroundImageFix" result="effect1_dropShadow_1_15"/>
<feBlend mode="normal" in="SourceGraphic" in2="effect1_dropShadow_1_15" result="shape"/>
</filter>
<filter id="filter2_d_1_15" x="171.909" y="112.114" width="175.045" height="305.159" filterUnits="userSpaceOnUse" color-interpolation-filters="sRGB">
<feFlood flood-opacity="0" result="BackgroundImageFix"/>
<feColorMatrix in="SourceAlpha" type="matrix" values="0 0 0 0 0 0 0 0 0 0 0 0 0 0 0 0 0 0 127 0" result="hardAlpha"/>
<feOffset dy="4"/>
<feGaussianBlur stdDeviation="2"/>
<feComposite in2="hardAlpha" operator="out"/>
<feColorMatrix type="matrix" values="0 0 0 0 0 0 0 0 0 0 0 0 0 0 0 0 0 0 0.25 0"/>
<feBlend mode="normal" in2="BackgroundImageFix" result="effect1_dropShadow_1_15"/>
<feBlend mode="normal" in="SourceGraphic" in2="effect1_dropShadow_1_15" result="shape"/>
</filter>
</defs>
</svg>
