<svg width="512" height="512" viewBox="0 0 512 512" fill="none" xmlns="http://www.w3.org/2000/svg">
<g filter="url(#filter0_i_1_40)">
<circle cx="256" cy="256" r="256" fill="#3C70BD"/>
</g>
<g filter="url(#filter1_d_1_40)">
<path d="M192.445 359.508C194.38 361.478 197.546 361.507 199.516 359.572L231.62 328.039C233.59 326.104 233.619 322.938 231.684 320.968C229.749 318.998 226.583 318.97 224.613 320.905L196.076 348.934L168.047 320.397C166.112 318.427 162.946 318.399 160.976 320.334C159.006 322.269 158.977 325.434 160.913 327.404L192.445 359.508ZM191.614 288.955L191.013 355.96L201.012 356.05L201.614 289.045L191.614 288.955Z" fill="white"/>
</g>
<g filter="url(#filter2_d_1_40)">
<path d="M462.84 356.479C465.5 357.22 468.257 355.663 468.997 353.003L481.062 309.651C481.803 306.99 480.246 304.234 477.586 303.493C474.926 302.753 472.169 304.309 471.428 306.97L460.704 345.505L422.168 334.78C419.508 334.04 416.751 335.596 416.011 338.257C415.27 340.917 416.827 343.674 419.487 344.414L462.84 356.479ZM426.883 295.77L459.826 354.121L468.534 349.204L435.591 290.854L426.883 295.77Z" fill="white"/>
</g>
<g filter="url(#filter3_d_1_40)">
<path d="M32.8665 197.942V180.364H155.594V197.942H104.138V344H84.3224V197.942H32.8665ZM186.176 344V180.364H205.991V253.233H293.242V180.364H313.058V344H293.242V270.811H205.991V344H186.176ZM352.728 344V180.364H408.02C420.804 180.364 431.297 182.548 439.5 186.915C447.704 191.23 453.776 197.169 457.718 204.733C461.66 212.297 463.63 220.9 463.63 230.541C463.63 240.183 461.66 248.732 457.718 256.189C453.776 263.647 447.73 269.506 439.58 273.767C431.43 277.975 421.017 280.08 408.339 280.08H363.595V262.182H407.7C416.436 262.182 423.467 260.903 428.794 258.347C434.174 255.79 438.062 252.168 440.459 247.48C442.91 242.739 444.135 237.093 444.135 230.541C444.135 223.989 442.91 218.263 440.459 213.363C438.009 208.462 434.094 204.68 428.714 202.017C423.334 199.3 416.223 197.942 407.38 197.942H372.544V344H352.728ZM429.753 270.491L470.022 344H447.011L407.38 270.491H429.753Z" fill="white"/>
</g>
<rect x="183.935" y="336.908" width="21.8724" height="9.44332" transform="rotate(38.9395 183.935 336.908)" fill="white"/>
<rect x="183.935" y="336.908" width="21.8724" height="9.44332" transform="rotate(38.9395 183.935 336.908)" fill="white"/>
<rect x="185.469" y="339" width="21.8724" height="9.44332" rx="1" transform="rotate(43.13 185.469 339)" fill="white"/>
<rect x="217.013" y="342" width="21.2079" height="9.69462" rx="1" transform="rotate(136.281 217.013 342)" fill="white"/>
<rect x="444.179" y="341.15" width="21.8724" height="9.44332" transform="rotate(8.97746 444.179 341.15)" fill="white"/>
<rect x="444.179" y="341.15" width="21.8724" height="9.44332" transform="rotate(8.97746 444.179 341.15)" fill="white"/>
<rect x="446.553" y="342.196" width="21.8724" height="9.44332" rx="1" transform="rotate(13.1679 446.553 342.196)" fill="white"/>
<rect x="475.379" y="329.041" width="21.2079" height="9.69462" rx="1" transform="rotate(106.319 475.379 329.041)" fill="white"/>
<rect x="191" y="341" width="10" height="9" fill="white"/>
<defs>
<filter id="filter0_i_1_40" x="-48" y="0" width="560" height="516" filterUnits="userSpaceOnUse" color-interpolation-filters="sRGB">
<feFlood flood-opacity="0" result="BackgroundImageFix"/>
<feBlend mode="normal" in="SourceGraphic" in2="BackgroundImageFix" result="shape"/>
<feColorMatrix in="SourceAlpha" type="matrix" values="0 0 0 0 0 0 0 0 0 0 0 0 0 0 0 0 0 0 127 0" result="hardAlpha"/>
<feMorphology radius="10" operator="erode" in="SourceAlpha" result="effect1_innerShadow_1_40"/>
<feOffset dx="-48" dy="4"/>
<feGaussianBlur stdDeviation="25"/>
<feComposite in2="hardAlpha" operator="arithmetic" k2="-1" k3="1"/>
<feColorMatrix type="matrix" values="0 0 0 0 0.756692 0 0 0 0 0.132326 0 0 0 0 0.858333 0 0 0 0.42 0"/>
<feBlend mode="normal" in2="shape" result="effect1_innerShadow_1_40"/>
</filter>
<filter id="filter1_d_1_40" x="155.48" y="288.955" width="81.637" height="80.0496" filterUnits="userSpaceOnUse" color-interpolation-filters="sRGB">
<feFlood flood-opacity="0" result="BackgroundImageFix"/>
<feColorMatrix in="SourceAlpha" type="matrix" values="0 0 0 0 0 0 0 0 0 0 0 0 0 0 0 0 0 0 127 0" result="hardAlpha"/>
<feOffset dy="4"/>
<feGaussianBlur stdDeviation="2"/>
<feComposite in2="hardAlpha" operator="out"/>
<feColorMatrix type="matrix" values="0 0 0 0 0 0 0 0 0 0 0 0 0 0 0 0 0 0 0.25 0"/>
<feBlend mode="normal" in2="BackgroundImageFix" result="effect1_dropShadow_1_40"/>
<feBlend mode="normal" in="SourceGraphic" in2="effect1_dropShadow_1_40" result="shape"/>
</filter>
<filter id="filter2_d_1_40" x="411.826" y="290.854" width="73.4201" height="73.8098" filterUnits="userSpaceOnUse" color-interpolation-filters="sRGB">
<feFlood flood-opacity="0" result="BackgroundImageFix"/>
<feColorMatrix in="SourceAlpha" type="matrix" values="0 0 0 0 0 0 0 0 0 0 0 0 0 0 0 0 0 0 127 0" result="hardAlpha"/>
<feOffset dy="4"/>
<feGaussianBlur stdDeviation="2"/>
<feComposite in2="hardAlpha" operator="out"/>
<feColorMatrix type="matrix" values="0 0 0 0 0 0 0 0 0 0 0 0 0 0 0 0 0 0 0.25 0"/>
<feBlend mode="normal" in2="BackgroundImageFix" result="effect1_dropShadow_1_40"/>
<feBlend mode="normal" in="SourceGraphic" in2="effect1_dropShadow_1_40" result="shape"/>
</filter>
<filter id="filter3_d_1_40" x="28.8665" y="180.364" width="445.156" height="171.636" filterUnits="userSpaceOnUse" color-interpolation-filters="sRGB">
<feFlood flood-opacity="0" result="BackgroundImageFix"/>
<feColorMatrix in="SourceAlpha" type="matrix" values="0 0 0 0 0 0 0 0 0 0 0 0 0 0 0 0 0 0 127 0" result="hardAlpha"/>
<feOffset dy="4"/>
<feGaussianBlur stdDeviation="2"/>
<feComposite in2="hardAlpha" operator="out"/>
<feColorMatrix type="matrix" values="0 0 0 0 0 0 0 0 0 0 0 0 0 0 0 0 0 0 0.25 0"/>
<feBlend mode="normal" in2="BackgroundImageFix" result="effect1_dropShadow_1_40"/>
<feBlend mode="normal" in="SourceGraphic" in2="effect1_dropShadow_1_40" result="shape"/>
</filter>
</defs>
</svg>
