<?xml version="1.0" encoding="UTF-8"?>
<!DOCTYPE svg PUBLIC "-//W3C//DTD SVG 1.1//EN" "http://www.w3.org/Graphics/SVG/1.1/DTD/svg11.dtd">
<svg xmlns="http://www.w3.org/2000/svg" version="1.1" width="32px" height="26px" style="shape-rendering:geometricPrecision; text-rendering:geometricPrecision; image-rendering:optimizeQuality; fill-rule:evenodd; clip-rule:evenodd" xmlns:xlink="http://www.w3.org/1999/xlink">
<g><path style="opacity:0.86" fill="#fefffe" d="M -0.5,-0.5 C 4.5,-0.5 9.5,-0.5 14.5,-0.5C 21.2797,1.56479 22.9464,5.73146 19.5,12C 23.2784,17.076 22.6117,21.576 17.5,25.5C 11.5,25.5 5.5,25.5 -0.5,25.5C -0.5,16.8333 -0.5,8.16667 -0.5,-0.5 Z M 7.5,5.5 C 9.97747,5.05078 11.9775,5.71745 13.5,7.5C 11.9775,9.28255 9.97747,9.94922 7.5,9.5C 7.5,8.16667 7.5,6.83333 7.5,5.5 Z M 7.5,15.5 C 9.19919,15.3398 10.8659,15.5065 12.5,16C 13.8333,17.3333 13.8333,18.6667 12.5,20C 10.8659,20.4935 9.19919,20.6602 7.5,20.5C 7.5,18.8333 7.5,17.1667 7.5,15.5 Z"/></g>
<g><path style="opacity:1" fill="#6c6ce5" d="M 31.5,19.5 C 31.5,21.1667 31.5,22.8333 31.5,24.5C 30.8333,24.5 30.5,24.8333 30.5,25.5C 28.8333,25.5 27.1667,25.5 25.5,25.5C 23.1667,19.1667 25.1667,17.1667 31.5,19.5 Z"/></g>
</svg>
